<svg xmlns="http://www.w3.org/2000/svg" viewBox="0 0 24 24" fill="none">
  <path
    d="M10.24 2.71a2.8 2.8 0 0 1 3.52 0l1.33 1.1c.3.25.67.4 1.06.44l1.72.16a2.8 2.8 0 0 1 2.48 2.49l.17 1.71c.04.39.19.76.44 1.06l1.09 1.33a2.8 2.8 0 0 1 0 3.52l-1.09 1.33c-.25.3-.4.67-.44 1.06l-.17 1.72a2.8 2.8 0 0 1-2.48 2.48l-1.72.17c-.39.04-.76.19-1.06.44l-1.33 1.09a2.8 2.8 0 0 1-3.52 0l-1.33-1.09a2.79 2.79 0 0 0-1.06-.44l-1.72-.17a2.8 2.8 0 0 1-2.48-2.48l-.17-1.72a2.8 2.8 0 0 0-.44-1.06L1.95 13.76a2.8 2.8 0 0 1 0-3.52l1.09-1.33c.25-.3.4-.67.44-1.06l.17-1.71a2.8 2.8 0 0 1 2.48-2.49l1.72-.16c.39-.04.76-.19 1.06-.44z"
    fill="#7f1d1d"
  />
  <path
    d="M8 12h8"
    stroke="#fff7ed"
    stroke-width="2"
    stroke-linecap="round"
    stroke-linejoin="round"
  />
</svg>
